<svg width="506" height="313" viewBox="0 0 506 313" fill="none" xmlns="http://www.w3.org/2000/svg">
    <rect width="506" height="313" rx="8" fill="#F7F7F9"/>
    <path d="M245.054 125.622c-4.334 0-6.82 1.034-6.82 3.036 0 1.98 2.486 3.014 6.82 3.014 4.356 0 6.82-1.034 6.82-3.014 0-2.002-2.464-3.036-6.82-3.036zm0 1.364c3.19 0 4.95.572 4.95 1.672 0 1.078-1.76 1.672-4.95 1.672-3.168 0-4.95-.594-4.95-1.672 0-1.1 1.782-1.672 4.95-1.672zm-8.03-13.486v1.43h15.994v-1.43h-15.994zm8.052 2.222c-4.114 0-6.424.99-6.424 2.838 0 1.87 2.31 2.838 6.424 2.838 4.092 0 6.424-.968 6.424-2.838 0-1.848-2.332-2.838-6.424-2.838zm0 1.298c2.86 0 4.466.55 4.466 1.54 0 1.012-1.606 1.562-4.466 1.562-2.882 0-4.488-.55-4.488-1.562 0-.99 1.606-1.54 4.488-1.54zm-.902-5.478v2.86h1.804v-2.86h-1.804zm-8.096 11.374v1.474h17.974v-1.474h-17.974zm8.096-2.046v2.772h1.804v-2.772h-1.804zm26.618-9.042v10.142h1.848v-10.142h-1.848zm-6.072.968v.924c0 3.454-2.816 6.028-8.052 7.172l.66 1.496c5.852-1.364 9.394-4.51 9.394-9.592h-2.002zm-7.062 0v1.496h8.294v-1.496h-8.294zm2.112 10.142v1.452h11.044v2.024h-11v4.378h1.804v-3.014h11.022v-4.84h-12.87zm.044 7.128v1.452H273.3v-1.452h-13.486zm16.763-8.448v1.496h17.974v-1.496h-17.974zm8.074-3.19v3.806h1.804v-3.806h-1.804zm-5.808-.572v1.496h13.618v-1.496h-13.618zm0-5.126v6.006h1.804v-4.532h11.66v-1.474h-13.464zm6.688 11.814c-4.246 0-6.82 1.298-6.82 3.564 0 2.31 2.574 3.586 6.82 3.586s6.82-1.276 6.82-3.586c0-2.266-2.574-3.564-6.82-3.564zm0 1.408c3.124 0 4.972.792 4.972 2.156 0 1.386-1.848 2.156-4.972 2.156-3.102 0-4.972-.77-4.972-2.156 0-1.364 1.87-2.156 4.972-2.156zM238.266 150.647h.204c.859 0 1.597-.103 2.213-.311.623-.215 1.135-.523 1.536-.924s.698-.891.891-1.472c.194-.587.29-1.253.29-1.998v-2.964c0-.566-.057-1.064-.171-1.494-.108-.429-.265-.784-.473-1.063a2.02 2.02 0 0 0-.709-.645 1.826 1.826 0 0 0-.881-.214c-.344 0-.648.085-.913.257a2.186 2.186 0 0 0-.677.677 3.64 3.64 0 0 0-.419.988 4.65 4.65 0 0 0-.139 1.15c0 .401.046.784.139 1.149.093.358.233.677.419.956.186.272.419.491.698.656.28.157.609.236.989.236.365 0 .691-.068.977-.204.294-.143.541-.33.741-.559.208-.229.366-.483.473-.763.115-.279.172-.562.172-.848l1.02.558c0 .502-.107.996-.322 1.483a4.56 4.56 0 0 1-.902 1.332c-.38.394-.82.709-1.321.945a3.727 3.727 0 0 1-1.612.355c-.73 0-1.378-.133-1.944-.398a4.24 4.24 0 0 1-1.44-1.117 5.058 5.058 0 0 1-.88-1.676 6.856 6.856 0 0 1-.301-2.073c0-.759.122-1.472.365-2.138a5.48 5.48 0 0 1 1.064-1.761 4.955 4.955 0 0 1 1.665-1.193c.651-.293 1.375-.44 2.17-.44.794 0 1.518.154 2.169.462a4.796 4.796 0 0 1 1.676 1.31c.466.559.824 1.228 1.074 2.009.258.781.387 1.647.387 2.6v1.074c0 1.017-.111 1.962-.333 2.836a8.27 8.27 0 0 1-.977 2.374 6.705 6.705 0 0 1-1.612 1.805 6.894 6.894 0 0 1-2.223 1.149c-.845.265-1.791.397-2.836.397h-.247v-2.503zm20.968-6.842v2.707c0 1.174-.125 2.188-.376 3.04-.25.845-.612 1.539-1.085 2.084a4.277 4.277 0 0 1-1.665 1.192c-.644.258-1.36.387-2.148.387-.63 0-1.217-.079-1.762-.236a4.426 4.426 0 0 1-1.471-.763 4.84 4.84 0 0 1-1.118-1.3c-.308-.53-.544-1.16-.709-1.891-.164-.73-.247-1.568-.247-2.513v-2.707c0-1.175.126-2.181.376-3.019.258-.845.62-1.536 1.085-2.073a4.281 4.281 0 0 1 1.676-1.182c.645-.258 1.361-.386 2.148-.386.631 0 1.214.082 1.751.247a4.364 4.364 0 0 1 1.472.741c.437.336.809.77 1.117 1.3.308.522.545 1.149.709 1.879.165.724.247 1.555.247 2.493zm-3.104 3.115v-3.534c0-.566-.032-1.06-.097-1.483a4.382 4.382 0 0 0-.268-1.074 2.25 2.25 0 0 0-.452-.73 1.637 1.637 0 0 0-.612-.409 2.154 2.154 0 0 0-.763-.128c-.35 0-.662.068-.934.204a1.734 1.734 0 0 0-.677.655c-.186.294-.329.687-.43 1.182-.093.487-.139 1.081-.139 1.783v3.534c0 .566.028 1.063.086 1.493.064.43.157.799.279 1.107.129.3.279.547.451.741.179.186.383.322.613.408.236.086.494.129.773.129.344 0 .648-.068.913-.204a1.8 1.8 0 0 0 .688-.666c.193-.308.336-.709.429-1.203.093-.495.14-1.096.14-1.805zm12.751-9.593V153h-3.094v-12.106l-3.717 1.181v-2.438l6.478-2.31h.333zm15.791 13.256V153h-10.699v-2.062l5.059-5.425c.509-.566.91-1.064 1.203-1.493.294-.437.505-.828.634-1.171.136-.351.204-.684.204-.999 0-.473-.079-.878-.236-1.214a1.76 1.76 0 0 0-.698-.795c-.301-.186-.674-.279-1.118-.279-.472 0-.88.114-1.224.343a2.185 2.185 0 0 0-.774.956 3.56 3.56 0 0 0-.257 1.386h-3.105c0-.931.222-1.783.666-2.557a4.887 4.887 0 0 1 1.88-1.858c.809-.465 1.769-.698 2.879-.698 1.096 0 2.019.179 2.771.537.76.351 1.332.859 1.719 1.525.394.659.591 1.447.591 2.364a4.75 4.75 0 0 1-.247 1.514 6.851 6.851 0 0 1-.709 1.461c-.301.48-.666.967-1.096 1.461a33.601 33.601 0 0 1-1.428 1.536l-2.718 3.051h6.703zm9.474-13.256V153h-3.093v-12.106l-3.717 1.181v-2.438l6.477-2.31h.333zm15.792 13.256V153h-10.7v-2.062l5.06-5.425a15.07 15.07 0 0 0 1.203-1.493c.294-.437.505-.828.634-1.171.136-.351.204-.684.204-.999 0-.473-.079-.878-.236-1.214a1.762 1.762 0 0 0-.699-.795c-.3-.186-.673-.279-1.117-.279-.473 0-.881.114-1.225.343a2.19 2.19 0 0 0-.773.956c-.172.409-.258.87-.258 1.386h-3.104c0-.931.222-1.783.666-2.557a4.88 4.88 0 0 1 1.88-1.858c.809-.465 1.769-.698 2.879-.698 1.095 0 2.019.179 2.771.537.759.351 1.332.859 1.719 1.525.394.659.591 1.447.591 2.364 0 .515-.083 1.02-.247 1.514a6.851 6.851 0 0 1-.709 1.461c-.301.48-.666.967-1.096 1.461-.43.494-.906 1.006-1.429 1.536l-2.718 3.051h6.704zm13.642-5.511v2.428h-6.069v-2.428h6.069zm15.469-7.745V153h-3.094v-12.106l-3.717 1.181v-2.438l6.478-2.31h.333zm15.791 13.256V153h-10.699v-2.062l5.059-5.425c.509-.566.91-1.064 1.203-1.493.294-.437.505-.828.634-1.171.136-.351.204-.684.204-.999 0-.473-.079-.878-.236-1.214a1.76 1.76 0 0 0-.698-.795c-.301-.186-.674-.279-1.118-.279-.472 0-.88.114-1.224.343a2.185 2.185 0 0 0-.774.956 3.56 3.56 0 0 0-.257 1.386h-3.105c0-.931.222-1.783.666-2.557a4.887 4.887 0 0 1 1.88-1.858c.809-.465 1.769-.698 2.879-.698 1.096 0 2.019.179 2.771.537.76.351 1.332.859 1.719 1.525.394.659.591 1.447.591 2.364a4.75 4.75 0 0 1-.247 1.514 6.851 6.851 0 0 1-.709 1.461c-.301.48-.666.967-1.096 1.461a33.09 33.09 0 0 1-1.429 1.536l-2.717 3.051h6.703zm5.102-6.746h1.655c.53 0 .966-.09 1.31-.269.344-.186.598-.444.763-.773a2.54 2.54 0 0 0 .258-1.171c0-.401-.079-.756-.237-1.063a1.597 1.597 0 0 0-.698-.731c-.315-.179-.712-.268-1.192-.268-.38 0-.731.075-1.053.225-.322.151-.58.362-.773.634-.194.272-.29.601-.29.988h-3.105c0-.859.229-1.608.688-2.245.465-.637 1.088-1.135 1.869-1.493.78-.358 1.64-.537 2.578-.537 1.06 0 1.987.172 2.782.515.795.337 1.414.835 1.858 1.494.444.658.666 1.475.666 2.449 0 .494-.114.974-.343 1.439a4.025 4.025 0 0 1-.989 1.246c-.422.366-.938.659-1.546.881-.609.215-1.293.322-2.052.322h-2.149v-1.643zm0 2.352v-1.6h2.149c.852 0 1.6.097 2.245.29.644.193 1.185.473 1.622.838.437.358.766.784.988 1.278.222.487.333 1.028.333 1.622 0 .731-.139 1.382-.419 1.955a4.094 4.094 0 0 1-1.181 1.44 5.406 5.406 0 0 1-1.762.902 7.667 7.667 0 0 1-2.202.301c-.659 0-1.307-.09-1.944-.269a5.772 5.772 0 0 1-1.719-.827 4.251 4.251 0 0 1-1.225-1.396c-.301-.566-.451-1.236-.451-2.009h3.104c0 .401.101.759.301 1.074.201.315.476.562.827.741.358.179.756.269 1.193.269.494 0 .916-.09 1.267-.269a1.94 1.94 0 0 0 .817-.773c.193-.337.29-.727.29-1.171 0-.573-.104-1.031-.312-1.375a1.842 1.842 0 0 0-.891-.773c-.387-.165-.845-.248-1.375-.248h-1.655zm20.421.967v2.428h-11.268l-.151-1.88 6.521-10.345h2.46l-2.664 4.458-3.244 5.339h8.346zm-1.772-9.797V153h-3.094v-15.641h3.094zm6.359 8.519-2.471-.591.892-7.928h8.787v2.503h-6.241l-.387 3.47c.208-.122.523-.251.946-.387a4.403 4.403 0 0 1 1.418-.215c.759 0 1.432.119 2.019.355a3.99 3.99 0 0 1 1.493 1.031c.416.451.731 1.003.946 1.655.214.651.322 1.389.322 2.212 0 .695-.108 1.357-.322 1.988a4.932 4.932 0 0 1-.978 1.675 4.56 4.56 0 0 1-1.644 1.15c-.658.279-1.439.419-2.341.419a6.39 6.39 0 0 1-1.955-.301 5.354 5.354 0 0 1-1.687-.892 4.577 4.577 0 0 1-1.192-1.428c-.294-.566-.448-1.211-.462-1.934h3.072c.043.444.158.827.344 1.15.193.315.447.558.762.73.316.172.684.258 1.107.258.394 0 .73-.075 1.01-.226.279-.15.505-.358.676-.623.172-.272.298-.587.376-.945.086-.365.129-.759.129-1.182 0-.422-.05-.805-.15-1.149a2.45 2.45 0 0 0-.462-.892 2.056 2.056 0 0 0-.795-.58 2.774 2.774 0 0 0-1.106-.204c-.573 0-1.017.09-1.332.269a3.22 3.22 0 0 0-.774.612zm17.703-8.68h.451v2.471h-.182c-.817 0-1.543.122-2.181.365a4.5 4.5 0 0 0-1.622 1.042 4.536 4.536 0 0 0-1.01 1.612c-.229.63-.343 1.335-.343 2.116v2.599c0 .559.053 1.053.161 1.483.114.422.275.777.483 1.063.215.28.466.491.752.634.287.136.609.204.967.204.336 0 .641-.072.913-.215.279-.143.516-.343.709-.601.2-.265.351-.573.451-.924.108-.358.161-.748.161-1.171 0-.423-.053-.813-.161-1.171a2.657 2.657 0 0 0-.451-.924 2.07 2.07 0 0 0-.73-.612 2.138 2.138 0 0 0-.967-.215 2.41 2.41 0 0 0-1.289.344 2.465 2.465 0 0 0-.86.859 2.33 2.33 0 0 0-.333 1.107l-.934-.602a4.465 4.465 0 0 1 .343-1.568c.215-.494.509-.931.881-1.311.38-.387.835-.687 1.365-.902.53-.222 1.127-.333 1.794-.333.73 0 1.371.14 1.922.419a3.964 3.964 0 0 1 1.397 1.149c.372.487.652 1.049.838 1.687.186.637.279 1.317.279 2.041 0 .759-.125 1.464-.376 2.116a4.945 4.945 0 0 1-1.063 1.708 4.814 4.814 0 0 1-1.655 1.139c-.644.272-1.368.408-2.17.408-.83 0-1.586-.151-2.266-.451a5.166 5.166 0 0 1-1.74-1.289 5.846 5.846 0 0 1-1.128-1.966 7.701 7.701 0 0 1-.387-2.492v-1.204c0-1.26.182-2.413.548-3.459.372-1.052.906-1.962 1.6-2.728a7.134 7.134 0 0 1 2.514-1.794c.981-.422 2.088-.634 3.319-.634zm15.276.161v1.665L411.881 153h-3.266l6.048-13.224h-7.788v-2.417h11.054z" fill="#495057"/>
    <path d="M29.122 110.016a4.47 4.47 0 0 1 4.47-4.469h151.999a4.47 4.47 0 0 1 4.47 4.469v172.08a4.47 4.47 0 0 1-4.47 4.47H33.593a4.47 4.47 0 0 1-4.47-4.47v-172.08zM429.554 199.752c0-2.782 2.296-5.037 5.129-5.037h46.164c2.833 0 5.13 2.255 5.13 5.037v50.366c0 2.782-2.297 5.037-5.13 5.037h-46.164c-2.833 0-5.129-2.255-5.129-5.037v-50.366z" fill="#EDEDF0"/>
    <rect x="232.979" y="174.697" width="253" height="10.919" rx="1" fill="#EDEDF0"/>
    <rect x="232.979" y="191.076" width="138.331" height="10.919" rx="1" fill="#EDEDF0"/>
    <path d="M356.542 266.343h-2.42v2.42c0 3.185-1.275 6.442-4.114 7.752l1.493 1.929c1.874-.946 3.13-2.693 3.858-4.84.692 2.02 1.911 3.657 3.75 4.549l1.419-1.911c-2.766-1.237-3.986-4.313-3.986-7.479v-2.42zm5.37-1.311v5.26h-3.222v1.929h3.222v9.626h2.402v-16.815h-2.402zM374.56 266.961c2.439 0 3.586.346 3.586 1.092 0 .783-1.147 1.11-3.586 1.11-2.42 0-3.567-.327-3.567-1.11 0-.746 1.147-1.092 3.567-1.092zm0 3.949c3.841 0 6.08-1.001 6.08-2.857 0-1.838-2.239-2.857-6.08-2.857-3.822 0-6.061 1.019-6.061 2.857 0 1.856 2.239 2.857 6.061 2.857zm7.572 2.621v-1.893h-15.143v1.893h6.352v1.092h-4.623v1.765h9.21v.892h-9.192v4.403h11.995v-1.801h-9.611v-.946h9.174v-4.313h-4.551v-1.092h6.389zM390.212 268.636h3.458v-1.984h-9.391v1.984h3.494v.928c0 2.857-1.365 5.932-4.168 7.188l1.365 1.911c1.966-.892 3.313-2.73 4.059-4.914.746 2.02 2.075 3.658 4.023 4.495l1.31-1.893c-2.803-1.164-4.15-4.058-4.15-6.787v-.928zm5.006-3.585v16.76h2.402v-16.76h-2.402zM406.628 272.111h-3.294v-2.074h3.294v2.074zm2.367-5.987h-2.367v2.075h-3.294v-2.075h-2.366v7.862h8.027v-7.862zm-.819 13.849c-2.13 0-3.277-.455-3.277-1.401 0-.947 1.147-1.402 3.277-1.402 2.147 0 3.294.455 3.294 1.402 0 .946-1.147 1.401-3.294 1.401zm0-4.677c-3.477 0-5.661 1.219-5.661 3.276 0 2.038 2.184 3.275 5.661 3.275 3.494 0 5.678-1.237 5.678-3.275 0-2.057-2.184-3.276-5.678-3.276zm5.496-6.333v-3.894h-2.402v9.863h2.402v-4.003h2.221v-1.966h-2.221zM428.833 269.618v1.547h-3.695v1.929h3.695v1.601h2.402v-9.644h-2.402v2.657h-3.003c.072-.492.109-1.001.109-1.529h-7.681v1.929h5.06c-.31 2.275-2.148 4.076-5.97 5.095l.928 1.893c3.695-1.037 6.043-2.839 7.08-5.478h3.477zm-3.131 10.246c-2.075 0-3.294-.528-3.294-1.547s1.219-1.547 3.294-1.547c2.057 0 3.276.528 3.276 1.547s-1.219 1.547-3.276 1.547zm0-4.95c-3.422 0-5.66 1.31-5.66 3.403s2.238 3.403 5.66 3.403c3.404 0 5.643-1.31 5.643-3.403s-2.239-3.403-5.643-3.403zM443.993 271.784c-2.603-.546-3.804-1.984-3.877-3.403h3.313v-1.893h-3.313v-1.474h-2.402v1.474h-3.277v1.893h3.277c-.073 1.565-1.274 3.075-3.895 3.658l1.037 1.838c1.984-.455 3.367-1.493 4.114-2.839.764 1.201 2.111 2.129 4.022 2.566l1.001-1.82zm-5.497 7.097h8.664v-4.459h-11.066v1.82h8.7v.947h-8.682v4.494h11.521v-1.801h-9.137v-1.001zm8.664-10.482v-3.348h-2.402v8.68h2.402v-3.367h2.203v-1.965h-2.203zM459.718 269.527v1.929h2.603v3.713h2.402v-10.118h-2.402v4.476h-2.603zm1.055 3.276c-2.675-.71-3.876-2.402-3.913-4.131h3.313v-1.893h-3.313v-1.783h-2.402v1.783h-3.277v1.893h3.277c-.037 1.874-1.202 3.767-3.859 4.531l1.128 1.856c1.948-.564 3.258-1.747 4.005-3.275.764 1.328 2.075 2.366 3.949 2.857l1.092-1.838zm-1.71 7.17c-2.221 0-3.35-.419-3.35-1.329 0-.91 1.129-1.346 3.35-1.346 2.184 0 3.33.436 3.33 1.346 0 .91-1.146 1.329-3.33 1.329zm0-4.513c-3.568 0-5.752 1.164-5.752 3.184 0 2.002 2.184 3.167 5.752 3.167 3.549 0 5.733-1.165 5.733-3.167 0-2.02-2.184-3.184-5.733-3.184zM477.445 272.657c-2.64-.782-3.786-2.657-3.823-4.567h3.277v-1.929h-9.065v1.929h3.331c-.036 2.092-1.238 4.222-3.95 5.131l1.202 1.875c1.965-.637 3.294-1.966 4.04-3.622.728 1.383 2.003 2.494 3.841 3.039l1.147-1.856zm-2.276 7.316c-2.147 0-3.294-.455-3.294-1.401 0-.965 1.147-1.42 3.294-1.42 2.13 0 3.277.455 3.277 1.42 0 .946-1.147 1.401-3.277 1.401zm0-4.677c-3.494 0-5.678 1.219-5.678 3.276 0 2.038 2.184 3.239 5.678 3.239 3.477 0 5.661-1.201 5.661-3.239 0-2.057-2.184-3.276-5.661-3.276zm5.479-6.387v-3.858h-2.403v9.954h2.403v-4.131h2.221v-1.965h-2.221zM290.871 35.7h3.331v-1.983h-9.21V35.7h3.476v.928c0 2.766-1.365 5.914-4.113 7.188l1.347 1.911c1.911-.91 3.258-2.748 4.004-4.931.746 1.983 2.057 3.657 3.913 4.513l1.329-1.893c-2.748-1.274-4.077-4.24-4.077-6.788V35.7zm9.41 2.803h-2.439v-6.388h-2.403v16.76h2.403v-8.389h2.439v-1.983zM308.998 47.074c-2.239 0-3.385-.382-3.385-1.256 0-.873 1.146-1.274 3.385-1.274s3.386.4 3.386 1.274-1.147 1.256-3.386 1.256zm0-4.35c-3.622 0-5.806 1.11-5.806 3.094 0 1.965 2.184 3.076 5.806 3.076s5.825-1.11 5.825-3.076c0-1.983-2.203-3.093-5.825-3.093zm1.256-2.73v-1.382h4.66V36.7h-9.21v-1.965h9.119v-1.911h-11.504v5.787h4.532v1.383h-6.37v1.91h15.162v-1.91h-6.389zM324.268 36.756h3.331v-1.911h-3.313v-2.33h-2.403v2.33h-3.403v1.91h3.403v.583c0 2.511-1.256 5.35-3.968 6.606l1.293 1.838c1.874-.837 3.167-2.53 3.895-4.531.691 1.856 1.911 3.42 3.695 4.24l1.274-1.82c-2.621-1.256-3.804-3.967-3.804-6.333v-.582zm9.501 1.874h-2.439v-6.497h-2.403v16.742h2.403v-8.261h2.439V38.63zM342.522 34.335c2.13 0 3.44.528 3.44 1.565 0 1.038-1.31 1.565-3.44 1.565-2.093 0-3.422-.527-3.422-1.565 0-1.037 1.329-1.565 3.422-1.565zm0 5.041c3.622 0 6.025-1.346 6.025-3.476 0-2.11-2.403-3.475-6.025-3.475-3.604 0-6.024 1.364-6.024 3.475 0 2.13 2.42 3.476 6.024 3.476zm-3.367 4.186h-2.439v5.022h11.758v-1.91h-9.319v-3.112zm-4.205-3.312v1.91h6.498v2.876h2.458V42.16h6.224v-1.91h-15.18zM360.686 36.446v1.947h2.621v5.951h2.402V32.115h-2.402v4.331h-2.621zm1.11 3.858c-2.639-.892-3.786-2.948-3.786-4.931v-.219h3.258v-1.91h-9.009v1.91h3.294v.237c0 2.11-1.201 4.313-3.95 5.204l1.202 1.911c1.965-.655 3.276-1.983 4.022-3.64.71 1.511 1.966 2.712 3.804 3.313l1.165-1.875zm-4.732 6.37v-3.349h-2.403v5.26h11.431v-1.912h-9.028zM374.681 39.758h-3.185v-4.422h3.185v4.422zm5.37-3.093v1.692h-3.022v-1.692h3.022zm-3.022 3.603h3.022v4.058h2.402v-12.21h-2.402v2.638h-3.022v-1.292h-7.899v8.189h7.899v-1.383zm-3.24 6.405V43.18h-2.402v5.405h11.43v-1.91h-9.028zM394.956 34.59h-3.658v-2.184h-2.403v2.184h-3.713v1.947h9.774V34.59zm-4.878 8.844c-1.019 0-1.802-.746-1.802-1.983 0-1.238.783-1.984 1.802-1.984 1.038 0 1.839.746 1.839 1.984 0 1.237-.801 1.983-1.839 1.983zm0-5.987c-2.293 0-4.022 1.692-4.022 4.004 0 2.31 1.729 4.003 4.022 4.003 2.312 0 4.041-1.692 4.041-4.003 0-2.312-1.729-4.004-4.041-4.004zm6.771-5.332v6.588h-2.202v1.947h2.202v8.225h2.403v-16.76h-2.403zM403.382 39.212c3.167-.29 5.224-1.456 6.116-3.057.874 1.602 2.949 2.766 6.097 3.057l.838-1.874c-3.186-.273-4.824-1.383-5.206-2.53h4.478v-1.91h-12.396v1.91h4.46c-.382 1.147-2.021 2.257-5.188 2.53l.801 1.874zm6.079 7.825c-2.238 0-3.385-.4-3.385-1.273 0-.874 1.147-1.256 3.385-1.256 2.239 0 3.386.382 3.386 1.255 0 .874-1.147 1.274-3.386 1.274zm0-4.385c-3.622 0-5.806 1.146-5.806 3.111 0 1.984 2.184 3.13 5.806 3.13 3.623 0 5.825-1.146 5.825-3.13 0-1.965-2.202-3.111-5.825-3.111zm-7.535-2.803v1.893h15.144v-1.893h-15.144z" fill="#636366"/>
    <path d="M29.904 47.315h9.028v-2.257h-2.93c-.62 0-1.512.073-2.185.146 2.457-2.402 4.478-5.023 4.478-7.461 0-2.511-1.693-4.15-4.241-4.15-1.839 0-3.04.729-4.278 2.039l1.457 1.456c.673-.746 1.492-1.383 2.475-1.383 1.274 0 2.02.819 2.02 2.184 0 2.074-2.166 4.604-5.824 7.88v1.546zM42.078 39.09c3.167-.31 5.224-1.474 6.116-3.076.873 1.602 2.948 2.766 6.097 3.076l.838-1.893c-3.131-.255-4.77-1.347-5.188-2.475h4.46v-1.91H42.005v1.91h4.441c-.418 1.128-2.056 2.22-5.187 2.475l.82 1.893zm6.08 8.007c-2.258 0-3.386-.346-3.386-1.165 0-.8 1.128-1.165 3.385-1.165 2.257 0 3.386.364 3.386 1.165 0 .819-1.129 1.165-3.386 1.165zm0-4.131c-3.64 0-5.807 1.073-5.807 2.966 0 1.892 2.166 2.966 5.806 2.966s5.825-1.074 5.825-2.966c0-1.893-2.184-2.966-5.825-2.966zm1.219-2.82v-2.02h-2.403v2.02h-6.352v1.91h15.144v-1.91h-6.39zM65.476 37.652h7.171v2.347h-7.171v-2.347zm4.787 7.334V41.91h4.75v-8.753h-2.366v2.602h-7.171v-2.602H63.09v8.753h4.77v3.076H61.49v1.947h15.18v-1.947h-6.407zM85.769 47.133c-2.312 0-3.386-.31-3.386-1 0-.692 1.074-.984 3.386-.984 2.33 0 3.404.292 3.404.983 0 .692-1.074 1.001-3.404 1.001zm0-3.749c-3.677 0-5.806.947-5.806 2.748 0 1.784 2.13 2.748 5.806 2.748 3.695 0 5.824-.965 5.824-2.748 0-1.801-2.13-2.748-5.824-2.748zm1.22-2.62v-1.038h4.786v-1.82h-9.282v-.91h8.773V35.25h-8.773v-.874h9.155v-1.82h-11.54v7.17h4.478v1.038h-6.37v1.874h15.161v-1.874H86.99z" fill="#3A3A3C"/>
    <path d="M233.948 282.06h8.493v-2.058h-5.003v-.082l1.74-1.704c2.449-2.233 3.106-3.35 3.106-4.705 0-2.065-1.687-3.525-4.241-3.525-2.501 0-4.217 1.495-4.211 3.833h2.39c-.005-1.14.716-1.838 1.804-1.838 1.047 0 1.826.652 1.826 1.699 0 .948-.581 1.599-1.663 2.64l-4.241 3.926v1.814zM248.937 282.322c2.996 0 4.805-2.28 4.811-6.206.006-3.896-1.826-6.13-4.811-6.13-2.99 0-4.805 2.228-4.81 6.13-.012 3.915 1.809 6.2 4.81 6.206zm0-2.088c-1.367 0-2.251-1.372-2.245-4.118.006-2.704.884-4.065 2.245-4.065 1.356 0 2.24 1.361 2.24 4.065.006 2.746-.878 4.118-2.24 4.118zM255.544 282.06h8.493v-2.058h-5.002v-.082l1.739-1.704c2.449-2.233 3.106-3.35 3.106-4.705 0-2.065-1.687-3.525-4.24-3.525-2.502 0-4.218 1.495-4.212 3.833h2.391c-.006-1.14.715-1.838 1.803-1.838 1.047 0 1.827.652 1.827 1.699 0 .948-.582 1.599-1.664 2.64l-4.241 3.926v1.814zM270.534 282.322c2.996 0 4.805-2.28 4.811-6.206.006-3.896-1.827-6.13-4.811-6.13-2.99 0-4.805 2.228-4.811 6.13-.012 3.915 1.809 6.2 4.811 6.206zm0-2.088c-1.367 0-2.251-1.372-2.246-4.118.006-2.704.885-4.065 2.246-4.065 1.355 0 2.239 1.361 2.239 4.065.006 2.746-.878 4.118-2.239 4.118zM278.117 282.212c.744 0 1.39-.623 1.396-1.396a1.413 1.413 0 0 0-1.396-1.384c-.768 0-1.402.622-1.397 1.384a1.394 1.394 0 0 0 1.397 1.396zM285.699 282.322c2.996 0 4.805-2.28 4.811-6.206.006-3.896-1.826-6.13-4.811-6.13-2.99 0-4.805 2.228-4.81 6.13-.012 3.915 1.809 6.2 4.81 6.206zm0-2.088c-1.367 0-2.251-1.372-2.245-4.118.006-2.704.884-4.065 2.245-4.065 1.356 0 2.24 1.361 2.24 4.065.006 2.746-.878 4.118-2.24 4.118zM297.489 270.149h-2.367l-2.95 1.867v2.233l2.729-1.709h.07v9.52h2.518v-11.911zM301.169 282.212c.744 0 1.39-.623 1.396-1.396a1.413 1.413 0 0 0-1.396-1.384c-.768 0-1.402.622-1.396 1.384a1.393 1.393 0 0 0 1.396 1.396zM308.272 270.149h-2.368l-2.949 1.867v2.233l2.728-1.709h.07v9.52h2.519v-11.911zM315.774 282.322c2.996 0 4.805-2.28 4.811-6.206.006-3.896-1.826-6.13-4.811-6.13-2.99 0-4.805 2.228-4.81 6.13-.012 3.915 1.809 6.2 4.81 6.206zm0-2.088c-1.367 0-2.251-1.372-2.245-4.118.006-2.704.884-4.065 2.245-4.065 1.356 0 2.24 1.361 2.24 4.065.006 2.746-.878 4.118-2.24 4.118z" fill="#636366"/>
    <path d="M241.229 229.287h8.493v-2.059h-5.003v-.081l1.739-1.704c2.449-2.234 3.107-3.35 3.107-4.706 0-2.064-1.687-3.524-4.241-3.524-2.501 0-4.217 1.495-4.212 3.833h2.391c-.006-1.14.716-1.838 1.804-1.838 1.047 0 1.826.651 1.826 1.698 0 .948-.582 1.599-1.664 2.641l-4.24 3.925v1.815zM256.218 229.549c2.996 0 4.805-2.28 4.811-6.206.006-3.897-1.827-6.13-4.811-6.13-2.99 0-4.805 2.227-4.811 6.13-.011 3.914 1.81 6.2 4.811 6.206zm0-2.088c-1.367 0-2.251-1.373-2.245-4.118.006-2.704.884-4.065 2.245-4.065 1.356 0 2.24 1.361 2.24 4.065.006 2.745-.879 4.118-2.24 4.118zM267.229 229.45c2.676 0 4.59-1.472 4.584-3.507.006-1.483-.937-2.542-2.688-2.763v-.093c1.332-.238 2.251-1.181 2.246-2.518.005-1.879-1.641-3.356-4.107-3.356-2.444 0-4.282 1.431-4.317 3.49h2.414c.029-.908.861-1.495 1.891-1.495 1.018 0 1.699.616 1.693 1.512.006.936-.791 1.57-1.937 1.57h-1.111v1.85h1.111c1.349 0 2.193.674 2.187 1.634.006.948-.809 1.599-1.96 1.599-1.112 0-1.943-.581-1.99-1.454h-2.536c.04 2.083 1.902 3.531 4.52 3.531zM278.295 229.549c2.995 0 4.805-2.28 4.81-6.206.006-3.897-1.826-6.13-4.81-6.13-2.991 0-4.805 2.227-4.811 6.13-.012 3.914 1.809 6.2 4.811 6.206zm0-2.088c-1.368 0-2.252-1.373-2.246-4.118.006-2.704.884-4.065 2.246-4.065 1.355 0 2.239 1.361 2.239 4.065.006 2.745-.878 4.118-2.239 4.118zM285.877 229.438c.745 0 1.391-.622 1.396-1.396a1.412 1.412 0 0 0-1.396-1.384c-.768 0-1.402.622-1.396 1.384a1.392 1.392 0 0 0 1.396 1.396zM293.46 229.549c2.996 0 4.805-2.28 4.811-6.206.006-3.897-1.827-6.13-4.811-6.13-2.99 0-4.805 2.227-4.811 6.13-.011 3.914 1.809 6.2 4.811 6.206zm0-2.088c-1.367 0-2.251-1.373-2.245-4.118.005-2.704.884-4.065 2.245-4.065 1.355 0 2.24 1.361 2.24 4.065.005 2.745-.879 4.118-2.24 4.118zM305.25 217.376h-2.368l-2.949 1.867v2.233l2.728-1.71h.07v9.521h2.519v-11.911zM308.929 229.438c.745 0 1.391-.622 1.397-1.396a1.413 1.413 0 0 0-1.397-1.384c-.767 0-1.401.622-1.396 1.384a1.393 1.393 0 0 0 1.396 1.396zM316.512 229.549c2.996 0 4.805-2.28 4.811-6.206.006-3.897-1.827-6.13-4.811-6.13-2.99 0-4.805 2.227-4.811 6.13-.011 3.914 1.81 6.2 4.811 6.206zm0-2.088c-1.367 0-2.251-1.373-2.245-4.118.006-2.704.884-4.065 2.245-4.065 1.356 0 2.24 1.361 2.24 4.065.006 2.745-.879 4.118-2.24 4.118zM328.302 217.376h-2.367l-2.95 1.867v2.233l2.729-1.71h.069v9.521h2.519v-11.911zM241.514 244.925h1.902c-.023-.966.384-1.349.931-1.349.395 0 .605.18 1.088.604.814.716 1.425 1.018 2.193 1.018 1.541 0 2.594-1.215 2.513-3.42h-1.897c.024.937-.384 1.35-.931 1.35-.407 0-.657-.215-1.105-.605-.849-.75-1.448-1.012-2.181-1.012-1.577 0-2.583 1.21-2.513 3.414zM252.027 249.304h8.493v-2.058h-5.003v-.082l1.74-1.704c2.449-2.233 3.106-3.35 3.106-4.705 0-2.065-1.687-3.525-4.241-3.525-2.501 0-4.217 1.495-4.211 3.833h2.39c-.005-1.14.716-1.838 1.804-1.838 1.047 0 1.826.652 1.826 1.699 0 .948-.581 1.599-1.663 2.64l-4.241 3.926v1.814zM267.016 249.566c2.996 0 4.805-2.28 4.811-6.206.006-3.896-1.826-6.13-4.811-6.13-2.99 0-4.805 2.228-4.81 6.13-.012 3.915 1.809 6.2 4.81 6.206zm0-2.088c-1.367 0-2.251-1.372-2.245-4.118.006-2.704.884-4.065 2.245-4.065 1.356 0 2.24 1.361 2.24 4.065.006 2.746-.878 4.118-2.24 4.118zM278.027 249.467c2.676 0 4.59-1.471 4.584-3.507.006-1.483-.937-2.541-2.688-2.762v-.093c1.333-.239 2.252-1.181 2.246-2.519.006-1.878-1.641-3.356-4.107-3.356-2.443 0-4.282 1.431-4.317 3.49h2.415c.029-.907.861-1.495 1.89-1.495 1.018 0 1.699.617 1.693 1.512.006.937-.791 1.571-1.937 1.571h-1.111v1.849h1.111c1.349 0 2.193.675 2.187 1.635.006.948-.808 1.599-1.96 1.599-1.111 0-1.943-.582-1.99-1.454h-2.536c.041 2.082 1.902 3.53 4.52 3.53zM289.093 249.566c2.996 0 4.805-2.28 4.811-6.206.005-3.896-1.827-6.13-4.811-6.13-2.99 0-4.805 2.228-4.811 6.13-.012 3.915 1.809 6.2 4.811 6.206zm0-2.088c-1.367 0-2.252-1.372-2.246-4.118.006-2.704.885-4.065 2.246-4.065 1.355 0 2.239 1.361 2.239 4.065.006 2.746-.878 4.118-2.239 4.118zM296.676 249.456c.744 0 1.39-.623 1.396-1.396a1.413 1.413 0 0 0-1.396-1.384c-.768 0-1.402.622-1.397 1.384a1.394 1.394 0 0 0 1.397 1.396zM303.778 237.393h-2.367l-2.95 1.867v2.233l2.729-1.709h.069v9.52h2.519v-11.911zM306.61 249.304h8.493v-2.058H310.1v-.082l1.74-1.704c2.449-2.233 3.106-3.35 3.106-4.705 0-2.065-1.687-3.525-4.241-3.525-2.501 0-4.217 1.495-4.211 3.833h2.39c-.005-1.14.716-1.838 1.804-1.838 1.047 0 1.826.652 1.826 1.699 0 .948-.581 1.599-1.663 2.64l-4.241 3.926v1.814zM318.4 249.456c.745 0 1.39-.623 1.396-1.396a1.413 1.413 0 0 0-1.396-1.384c-.768 0-1.402.622-1.396 1.384a1.393 1.393 0 0 0 1.396 1.396zM325.843 249.467c2.676 0 4.59-1.471 4.584-3.507.006-1.483-.937-2.541-2.688-2.762v-.093c1.333-.239 2.252-1.181 2.246-2.519.006-1.878-1.641-3.356-4.107-3.356-2.443 0-4.282 1.431-4.316 3.49h2.414c.029-.907.861-1.495 1.89-1.495 1.018 0 1.699.617 1.693 1.512.006.937-.791 1.571-1.937 1.571h-1.111v1.849h1.111c1.35 0 2.193.675 2.187 1.635.006.948-.808 1.599-1.96 1.599-1.111 0-1.943-.582-1.99-1.454h-2.536c.041 2.082 1.902 3.53 4.52 3.53zM337.421 237.393h-2.368l-2.949 1.867v2.233l2.728-1.709h.07v9.52h2.519v-11.911zM242.09 69.811h-4.21l-5.243 3.319v3.97l4.85-3.04h.125v16.927h4.478V69.81zM256.338 69.811h-4.209l-5.243 3.319v3.97l4.85-3.04h.124v16.927h4.478V69.81zM271.31 78.651h-9.659v3.495h9.659v-3.495zM284.237 69.811h-4.209l-5.243 3.319v3.97l4.85-3.04h.124v16.927h4.478V69.81zM297.1 91.276c4.757 0 8.159-2.616 8.149-6.235.01-2.636-1.665-4.518-4.778-4.911v-.165c2.368-.425 4.002-2.1 3.992-4.478.01-3.34-2.916-5.965-7.301-5.965-4.344 0-7.612 2.543-7.674 6.203h4.292c.052-1.613 1.531-2.657 3.361-2.657 1.81 0 3.02 1.096 3.01 2.688.01 1.665-1.407 2.792-3.444 2.792h-1.975v3.288h1.975c2.399 0 3.899 1.2 3.888 2.905.011 1.686-1.437 2.844-3.485 2.844-1.975 0-3.454-1.034-3.537-2.585h-4.509c.073 3.701 3.382 6.276 8.036 6.276zM318.406 78.651h-9.659v3.495h9.659v-3.495zM321.522 90.987h15.099v-3.66h-8.894v-.145l3.092-3.03c4.354-3.97 5.522-5.956 5.522-8.365 0-3.67-2.999-6.266-7.539-6.266-4.447 0-7.497 2.658-7.487 6.814h4.25c-.01-2.026 1.272-3.267 3.206-3.267 1.862 0 3.248 1.158 3.248 3.02 0 1.684-1.035 2.843-2.958 4.693l-7.539 6.98v3.226zM348.17 91.452c5.326 0 8.542-4.053 8.552-11.033.011-6.927-3.247-10.897-8.552-10.897-5.316 0-8.542 3.96-8.553 10.897-.02 6.959 3.216 11.022 8.553 11.033zm0-3.712c-2.43 0-4.002-2.44-3.992-7.32.01-4.808 1.572-7.228 3.992-7.228 2.409 0 3.981 2.42 3.981 7.227.011 4.88-1.561 7.32-3.981 7.32zM369.13 69.811h-4.209l-5.243 3.319v3.97l4.85-3.04h.124v16.927h4.478V69.81zM373.843 87.264h10.166v3.723h4.282v-3.723h2.626v-3.588h-2.626V69.811h-5.606l-8.842 13.927v3.526zm10.249-3.588h-5.74v-.165l5.574-8.82h.166v8.985zM402.205 91.452c5.326 0 8.543-4.053 8.553-11.033.01-6.927-3.247-10.897-8.553-10.897-5.315 0-8.542 3.96-8.552 10.897-.021 6.959 3.216 11.022 8.552 11.033zm0-3.712c-2.43 0-4.002-2.44-3.992-7.32.011-4.808 1.572-7.228 3.992-7.228 2.41 0 3.982 2.42 3.982 7.227.01 4.88-1.562 7.32-3.982 7.32zM413.951 90.987h15.099v-3.66h-8.894v-.145l3.092-3.03c4.354-3.97 5.523-5.956 5.523-8.365 0-3.67-2.999-6.266-7.539-6.266-4.447 0-7.498 2.658-7.488 6.814h4.251c-.011-2.026 1.272-3.267 3.206-3.267 1.861 0 3.247 1.158 3.247 3.02 0 1.684-1.034 2.843-2.958 4.693l-7.539 6.98v3.226zM442.233 78.651h-9.659v3.495h9.659v-3.495zM455.16 69.811h-4.209l-5.243 3.319v3.97l4.85-3.04h.124v16.927h4.478V69.81zM469.408 69.811h-4.209l-5.243 3.319v3.97l4.85-3.04h.124v16.927h4.478V69.81zM74.998 136.759c6.005-9.863 13.158-13.151 29.596-13.151 15.157-.001 39.665-13.148 45.565 34.042 3.288 26.302-7.752 34.995-19.26 48.145-14.567 12.676-12.788 7.425-48.145-5.001-1.645-3.287-30.775-26.23-7.756-64.035z" fill="#3A3A3C"/>
    <path d="M84.921 243.632c5.138-10.145 3.853-22.403 2.569-27.898 2.055 2.029 28.257.846 41.102 0-4.111 6.087-1.285 21.98 1.284 29.166-21.578 11.159-38.533 3.382-44.955-1.268z" fill="#FFD5B6"/>
    <path d="M129.862 244.619c-12.33 0-37.248-13.949-41.102-24.094 8.22 7.102 29.542 2.959 38.533 0-1.284 5.073.428 17.753 2.569 24.094z" fill="#C99273"/>
    <path d="M129.867 244.658c-20.551 11.497-38.533 3.92-44.955-1.306-48.237 9.573-51.571 31.571-52.449 40.889a2.043 2.043 0 0 0 2.032 2.225h149.51c1.241 0 2.185-1.12 1.936-2.336-3.459-16.842-13.097-31.978-56.074-39.472z" fill="#ADB5BD"/>
    <path d="M65.734 187.632c-1.11-11.155 7.804-12.271 10.15-7.648 10.415-44.87 42.47-35.903 51.131-29.157 10.027 7.811 12.629 22.503 13.743 30.311 4.338-5.738 9.653-1.306 9.653 5.387 0 8.924-4.457 12.271-9.909 9.076-8.073 30.559-29.581 34.773-42.695 29.918-10.275-3.804-16.47-15.568-21.924-31.034-1.114 1.86-9.24 2.29-10.149-6.853z" fill="#FFD5B6"/>
    <path d="M78.429 145.229c4.32 11.063 20.876 15.437 33.04 16.091-5.623-4.794-2.148-3.789-5.623-7.157 9.384 7.867 21.38 12.193 33.788 12.186a20.872 20.872 0 0 0 1.048-8.485 21.02 21.02 0 0 0-2.442-8.212 21.67 21.67 0 0 0-5.549-6.642 22.422 22.422 0 0 0-7.779-4.026c-3.741-1.099-7.723-1.193-11.536-2.058-3.21-.725-6.299-1.965-9.654-2.339-9.799-1.403-25.704-3.976-25.438 10.735" fill="#3A3A3C"/>
    <path d="M446.901 206.752c1.926-3.163 4.22-4.218 9.492-4.218 4.861 0 12.722-4.217 14.614 10.918 1.054 8.436-2.486 11.224-6.177 15.442-4.672 4.065-4.102 2.381-15.441-1.604-.528-1.054-9.871-8.413-2.488-20.538z" fill="#26262B"/>
    <path d="M450.088 241.026c1.647-3.254 1.235-7.185.824-8.948.659.651 9.062.271 13.182 0-1.318 1.952-.412 7.05.412 9.354-6.921 3.579-12.359 1.085-14.418-.406z" fill="#FFD5B6"/>
    <path d="M464.493 241.341c-3.955 0-11.947-4.474-13.182-7.728 2.636 2.278 9.474.949 12.358 0-.412 1.627.137 5.694.824 7.728z" fill="#C99273"/>
    <path d="M464.502 241.353c-6.591 3.687-12.358 1.257-14.418-.419-14.813 2.94-16.423 9.533-16.78 12.711a1.017 1.017 0 0 0 1.013 1.117h47.123c.62 0 1.094-.561.957-1.166-1.186-5.234-4.466-9.902-17.895-12.243z" fill="#ADB5BD"/>
    <path d="M443.932 223.067c-.356-3.578 2.503-3.936 3.256-2.453 3.34-14.391 13.621-11.515 16.399-9.351 3.216 2.505 4.05 7.217 4.408 9.721 1.391-1.84 3.095-.419 3.095 1.728 0 2.862-1.429 3.935-3.178 2.911-2.589 9.801-9.487 11.152-13.693 9.595-3.296-1.22-5.283-4.993-7.031-9.953-.358.596-2.964.734-3.256-2.198z" fill="#FFD5B6"/>
    <path d="M448.002 209.467c1.386 3.548 6.696 4.951 10.597 5.161-1.804-1.538-.689-1.215-1.804-2.295 3.01 2.523 6.858 3.91 10.837 3.908a6.695 6.695 0 0 0 .336-2.722 6.73 6.73 0 0 0-.783-2.633 6.932 6.932 0 0 0-1.78-2.131 7.217 7.217 0 0 0-2.494-1.291c-1.2-.352-2.477-.382-3.7-.66-1.03-.232-2.021-.63-3.097-.75-3.142-.45-8.244-1.275-8.158 3.443" fill="#26262B"/>
</svg>
