<svg width="369" height="67" viewBox="0 0 369 67" fill="none" xmlns="http://www.w3.org/2000/svg">
    <g clip-path="url(#8eb7a4ryia)">
        <path d="M40.44 50.39h-5.08c-4.36 0-7.9 3.54-7.9 7.9s3.54 7.9 7.9 7.9h5.08c4.36 0 7.9-3.54 7.9-7.9s-3.54-7.9-7.9-7.9zm0 11.86h-5.08c-2.18 0-3.96-1.77-3.96-3.96s1.77-3.96 3.96-3.96h5.08c2.18 0 3.96 1.77 3.96 3.96s-1.77 3.96-3.96 3.96zM121.98 51.79l-.05-.04.03-.05c.42-.79.64-1.67.64-2.56 0-3.02-2.45-5.48-5.46-5.48h-11.57v20.17l2.32 2.36h10.24c4.26 0 7.72-3.46 7.72-7.72 0-2.74-1.48-5.3-3.86-6.68h-.01zm-12.48-4.37h7.29c.98 0 1.77.79 1.77 1.77s-.79 1.75-1.75 1.76h-7.31v-3.53zm8.59 14.82h-8.59v-7.6h8.59c2.1 0 3.8 1.71 3.8 3.8s-1.71 3.8-3.8 3.8zM94.12 62.14c-1.2 0-2.17.97-2.17 2.17s.97 2.17 2.17 2.17 2.17-.97 2.17-2.17-.97-2.17-2.17-2.17zM209.73 62.14c-1.2 0-2.17.97-2.17 2.17s.97 2.17 2.17 2.17 2.17-.97 2.17-2.17-.97-2.17-2.17-2.17zM167.9 44.76l-3.95 2.34v16.86l2.23 2.23h1.72V54.34h3.86l2.47-3.95h-6.33v-5.63zM155.82 44.76l-3.95 2.34v16.86l2.23 2.23h1.72V54.34h3.86l2.47-3.95h-6.33v-5.63zM12.19 52.69l-8.64-9.03H0v20.3l2.23 2.23h1.71l.02-16.25 6.69 7.05 3.2.01 5.94-6.73-.01 15.92h3.96V43.66h-3.63l-7.92 9.03zM59.73 60.87l-6.48-10.48H48.6l9.87 15.8h2.54l9.9-15.8h-4.65l-6.53 10.48zM88.88 51.82c-.97-.93-2.61-1.43-4.86-1.43h-4.86c-4.36 0-7.9 3.54-7.9 7.9s3.54 7.9 7.9 7.9h9.1v-3.94h-9.12c-.07 0-.14 0-.21-.01l7.79-2.94c1.6-.59 3.62-1.73 3.45-4.67-.07-1.17-.53-2.08-1.3-2.81h.01zm-3.2 4.21L75.54 59.9c-.22-.5-.35-1.04-.35-1.6 0-2.18 1.77-3.96 3.96-3.96h6.1c.63 0 1 .31 1.05.67.05.36-.01.78-.62 1.02zM146.93 51.82c-.97-.93-2.61-1.43-4.86-1.43h-4.86c-4.36 0-7.9 3.54-7.9 7.9s3.54 7.9 7.9 7.9h9.1v-3.94h-9.12c-.07 0-.14 0-.21-.01l7.79-2.94c1.6-.59 3.62-1.73 3.45-4.67-.07-1.17-.53-2.08-1.3-2.81h.01zm-3.2 4.21-10.14 3.87c-.22-.5-.35-1.04-.35-1.6 0-2.18 1.77-3.96 3.96-3.96h6.1c.63 0 1 .31 1.05.67.05.36-.01.78-.62 1.02zM191.85 51.82c-.97-.93-2.61-1.43-4.86-1.43h-4.86c-4.36 0-7.9 3.54-7.9 7.9s3.54 7.9 7.9 7.9h9.1v-3.94h-9.12c-.07 0-.14 0-.21-.01l7.79-2.94c1.6-.59 3.62-1.73 3.45-4.67-.07-1.17-.53-2.08-1.3-2.81h.01zm-3.2 4.21-10.14 3.87c-.22-.5-.35-1.04-.35-1.6 0-2.18 1.77-3.96 3.96-3.96h6.1c.63 0 1 .31 1.05.67.05.36-.01.78-.62 1.02zM210.59 50.39h-7.83c-3.66 0-6.32 2.74-6.32 6.51v7.06l2.22 2.23h1.73v-9.23c0-1.62 1.21-2.62 2.68-2.62h5.05l2.47-3.95z" fill="#1C1C1B"/>
        <path d="M306.59 55.76h-7.03v-3.93h6.07v-5.64c0-1.4-1.14-2.53-2.53-2.53h-6.99v2.41h6.07v3.34h-6.07v6.23c0 1.4 1.13 2.53 2.53 2.53h7.95v-2.41zM304.22 63.78v-4.33h-3.45v4.21c0 1.4 1.14 2.54 2.54 2.54h13.67v-2.41h-12.76v-.01zM316.47 43.66h-3.37V59.7h3.37V43.66zM311.7 43.66h-3.37v5.78h-1.81v2.41h1.81v7.85h3.37V43.66zM365.65 49.86v-6.18h-3.45v22.54h.91c1.4 0 2.54-1.13 2.54-2.53V52.27h2.71v-2.41h-2.71zM346.2 46.09h8.45v3.77h-8.44v2.41h8.32c-.58 3.87-3.26 6.38-6.38 6.38h-3.07v2.41h3.14c5.61 0 9.87-4.44 9.87-10.1v-7.29H346.2v2.42zM337.87 43.69v6.18h-2.91v2.41h2.91v13.95h.91c1.4 0 2.53-1.13 2.53-2.53V43.69h-3.45.01zM321.06 46.21v10.96c0 1.4 1.14 2.53 2.53 2.53h11.16v-2.41h-10.24v-5.02h8.4v-2.41h-8.4v-3.77h10.24v-2.41h-11.16c-1.39 0-2.53 1.13-2.53 2.53z" fill="#EA6F05"/>
        <path d="M238.96 49.011c-2.37-1.11-4.31-2.01-4.31-3.82 0-1.38 1.11-2.39 3.3-2.39.8 0 1.46.09 2.15.22.36.06.73.11 1.05.11 1.91 0 3-1.14 3.71-3.31l.3-.88c-.31-.13-3.43-1.5-7.51-1.5-6.49 0-9.91 4.16-9.91 8.48 0 2.18.68 3.75 1.74 5 1.38 1.6 3.34 2.65 5.17 3.54 2.67 1.32 5.08 2.28 5.08 4.23 0 1.72-1.78 2.7-4.16 2.7-3.27 0-6.12-1.86-6.48-2.09l-2.68 5.02c.48.27 3.93 2.46 9.61 2.46 6.06 0 10.64-3.48 10.64-8.82s-4.25-7.28-7.69-8.95h-.01zM262.64 51.491l10.98-13.46h-7.82l-8.75 11.62h-.13v-11.62h-6.45v28.52h.38c2.78 0 6.11-1.29 6.11-5.95v-6.55h.13l8.93 12.14h8.2l-11.58-14.7zM273.98 7.47c-2.27.43-5.64 2.48-5.63 6.13.01 3.31 2.71 5.32 2.73 9.65 0 3.26-1.79 5.46-3.73 6.68.79-.07 1.65-.12 2.59-.12 1.99 0 3.18.18 3.26.19l10.19-12.5a42.122 42.122 0 0 0-9.41-10.04v.01z" fill="#CD1321"/>
        <path d="M282.54 41.22c1.29-1.99 1.45-5.18 1.55-8.42.12-3.02.75-5.3 4.79-5.31.9 0 1.75.12 3.29.11 5.93-.03 9.79-2.07 12.2-3.41-4.91-3.13-12.09-6.33-20.99-6.69-.58 1.63-5.09 14.18-5.43 15.19.05.06.85.95 1.83 2.67 1.45 2.37 2.24 4.38 2.75 5.85l.01.01z" fill="#CD1321"/>
        <path d="M261.02 30.98c-.51 0-.77-.34-.84-.93-.07-.59-2.61-23.89-2.99-27.42-.06-.52-.18-1.46-.18-1.8 0-.54.35-.83.76-.83 1.21 0 7.79 1.54 14.76 6.43-2.01.57-5.65 2.66-5.63 6.99.02 3.83 2.76 5.94 2.77 9.79.03 6.26-7.16 7.77-8.66 7.77h.01zM283.12 42.89c.11.29.21.53.32.71.16.27.37.4.62.39.17 0 .36-.05.58-.15.54-.24 21.81-10.15 25.01-11.63.47-.22 1.35-.62 1.64-.79.3-.18.44-.42.44-.68 0-.15-.04-.29-.12-.42-.4-.65-2.46-2.83-5.9-5.22-2.74 1.5-7 3.83-13.34 3.85-1.55 0-1.91-.1-2.97-.1-3.1.01-3.87 1.34-3.98 4.05-.02.51-.03 1.21-.06 1.96-.1 2.43-.39 5.77-2.24 8.01v.02z" fill="#EA6F05"/>
    </g>
    <defs>
        <clipPath id="8eb7a4ryia">
            <path fill="#fff" d="M0 0h368.37v66.77H0z"/>
        </clipPath>
    </defs>
</svg>
